<?xml version="1.0" encoding="UTF-8" standalone="no"?><!-- Generator: Gravit.io --><svg xmlns="http://www.w3.org/2000/svg" xmlns:xlink="http://www.w3.org/1999/xlink" style="isolation:isolate" viewBox="0 0 1920 1080" width="1920pt" height="1080pt"><defs><clipPath id="_clipPath_aqtZFqKm7ccJo1WMjBa8ttiPTmesomfx"><rect width="1920" height="1080"/></clipPath></defs><g clip-path="url(#_clipPath_aqtZFqKm7ccJo1WMjBa8ttiPTmesomfx)"><linearGradient id="_lgradient_1" x1="0.1464466094067262" y1="0.8535533905932737" x2="0.8535533905932737" y2="0.14644660940672627"><stop offset="0%" style="stop-color:#112071"/><stop offset="100%" style="stop-color:#C5D3FF"/></linearGradient><rect width="1920" height="1080" style="fill:url(#_lgradient_1);"/><linearGradient id="_lgradient_2" x1="0.1464466094067262" y1="0.8535533905932737" x2="0.8535533905932737" y2="0.14644660940672627" gradientTransform="matrix(2154,0,0,1566,-297,-213)" gradientUnits="userSpaceOnUse"><stop offset="0%" stop-opacity="0.5" style="stop-color:rgb(255,255,255)"/><stop offset="100%" stop-opacity="0.3" style="stop-color:rgb(255,255,255)"/></linearGradient><path d=" M 462 474 C 462 449.164 482.164 429 507 429 C 531.836 429 552 449.164 552 474 C 552 498.836 531.836 519 507 519 C 482.164 519 462 498.836 462 474 L 462 474 L 462 474 L 462 474 L 462 474 L 462 474 L 462 474 L 462 474 L 462 474 L 462 474 L 462 474 L 462 474 L 462 474 L 462 474 L 462 474 L 462 474 L 462 474 L 462 474 L 462 474 L 462 474 L 462 474 L 462 474 L 462 474 L 462 474 L 462 474 L 462 474 Z  M 108 405 C 108 370.229 136.229 342 171 342 C 205.771 342 234 370.229 234 405 C 234 439.771 205.771 468 171 468 C 136.229 468 108 439.771 108 405 L 108 405 L 108 405 L 108 405 L 108 405 L 108 405 L 108 405 L 108 405 L 108 405 L 108 405 L 108 405 L 108 405 L 108 405 L 108 405 L 108 405 L 108 405 L 108 405 L 108 405 L 108 405 L 108 405 L 108 405 L 108 405 L 108 405 L 108 405 L 108 405 L 108 405 Z  M 351 300 C 351 281.787 365.787 267 384 267 C 402.213 267 417 281.787 417 300 C 417 318.213 402.213 333 384 333 C 365.787 333 351 318.213 351 300 L 351 300 L 351 300 L 351 300 L 351 300 L 351 300 L 351 300 L 351 300 L 351 300 L 351 300 L 351 300 L 351 300 L 351 300 L 351 300 L 351 300 L 351 300 L 351 300 L 351 300 L 351 300 L 351 300 L 351 300 L 351 300 L 351 300 L 351 300 L 351 300 Z  M 132 132 C 132 103.852 154.852 81 183 81 C 211.148 81 234 103.852 234 132 C 234 160.148 211.148 183 183 183 C 154.852 183 132 160.148 132 132 L 132 132 L 132 132 L 132 132 L 132 132 L 132 132 L 132 132 L 132 132 L 132 132 L 132 132 L 132 132 L 132 132 L 132 132 L 132 132 L 132 132 L 132 132 L 132 132 L 132 132 L 132 132 L 132 132 L 132 132 L 132 132 L 132 132 L 132 132 Z  M 408 78 C 408 48.197 432.197 24 462 24 C 491.803 24 516 48.197 516 78 C 516 107.803 491.803 132 462 132 C 432.197 132 408 107.803 408 78 L 408 78 L 408 78 L 408 78 L 408 78 L 408 78 L 408 78 L 408 78 L 408 78 L 408 78 L 408 78 L 408 78 L 408 78 L 408 78 L 408 78 L 408 78 L 408 78 L 408 78 L 408 78 L 408 78 L 408 78 L 408 78 L 408 78 Z  M 993 474 C 993 452.475 1010.475 435 1032 435 C 1053.525 435 1071 452.475 1071 474 C 1071 495.525 1053.525 513 1032 513 C 1010.475 513 993 495.525 993 474 L 993 474 L 993 474 L 993 474 L 993 474 L 993 474 L 993 474 L 993 474 L 993 474 L 993 474 L 993 474 L 993 474 L 993 474 L 993 474 L 993 474 L 993 474 L 993 474 L 993 474 L 993 474 L 993 474 L 993 474 L 993 474 Z  M 1266 138 C 1266 109.852 1288.852 87 1317 87 C 1345.148 87 1368 109.852 1368 138 C 1368 166.148 1345.148 189 1317 189 C 1288.852 189 1266 166.148 1266 138 L 1266 138 L 1266 138 L 1266 138 L 1266 138 L 1266 138 L 1266 138 L 1266 138 L 1266 138 L 1266 138 L 1266 138 L 1266 138 L 1266 138 L 1266 138 L 1266 138 L 1266 138 L 1266 138 L 1266 138 L 1266 138 L 1266 138 L 1266 138 Z  M 1425 330 C 1425 315.098 1437.098 303 1452 303 C 1466.902 303 1479 315.098 1479 330 C 1479 344.902 1466.902 357 1452 357 C 1437.098 357 1425 344.902 1425 330 L 1425 330 L 1425 330 L 1425 330 L 1425 330 L 1425 330 L 1425 330 L 1425 330 L 1425 330 L 1425 330 L 1425 330 L 1425 330 L 1425 330 L 1425 330 L 1425 330 L 1425 330 L 1425 330 L 1425 330 L 1425 330 L 1425 330 Z  M 1197 309 C 1197 285.82 1215.82 267 1239 267 C 1262.18 267 1281 285.82 1281 309 C 1281 332.18 1262.18 351 1239 351 C 1215.82 351 1197 332.18 1197 309 L 1197 309 L 1197 309 L 1197 309 L 1197 309 L 1197 309 L 1197 309 L 1197 309 L 1197 309 L 1197 309 L 1197 309 L 1197 309 L 1197 309 L 1197 309 L 1197 309 L 1197 309 L 1197 309 L 1197 309 L 1197 309 Z  M 432 957 C 432 917.262 464.262 885 504 885 C 543.738 885 576 917.262 576 957 C 576 996.738 543.738 1029 504 1029 C 464.262 1029 432 996.738 432 957 L 432 957 L 432 957 L 432 957 L 432 957 L 432 957 L 432 957 L 432 957 L 432 957 L 432 957 L 432 957 L 432 957 L 432 957 L 432 957 L 432 957 L 432 957 L 432 957 L 432 957 Z  M 765 921 C 765 897.82 783.82 879 807 879 C 830.18 879 849 897.82 849 921 C 849 944.18 830.18 963 807 963 C 783.82 963 765 944.18 765 921 L 765 921 L 765 921 L 765 921 L 765 921 L 765 921 L 765 921 L 765 921 L 765 921 L 765 921 L 765 921 L 765 921 L 765 921 L 765 921 L 765 921 L 765 921 L 765 921 Z  M 1368 831 C 1368 804.508 1389.508 783 1416 783 C 1442.492 783 1464 804.508 1464 831 C 1464 857.492 1442.492 879 1416 879 C 1389.508 879 1368 857.492 1368 831 L 1368 831 L 1368 831 L 1368 831 L 1368 831 L 1368 831 L 1368 831 L 1368 831 L 1368 831 L 1368 831 L 1368 831 L 1368 831 L 1368 831 L 1368 831 L 1368 831 L 1368 831 Z  M 969 726 C 969 702.82 987.82 684 1011 684 C 1034.18 684 1053 702.82 1053 726 C 1053 749.18 1034.18 768 1011 768 C 987.82 768 969 749.18 969 726 L 969 726 L 969 726 L 969 726 L 969 726 L 969 726 L 969 726 L 969 726 L 969 726 L 969 726 L 969 726 L 969 726 L 969 726 L 969 726 L 969 726 Z  M 1521 582 C 1521 543.918 1551.918 513 1590 513 C 1628.082 513 1659 543.918 1659 582 C 1659 620.082 1628.082 651 1590 651 C 1551.918 651 1521 620.082 1521 582 L 1521 582 L 1521 582 L 1521 582 L 1521 582 L 1521 582 L 1521 582 L 1521 582 L 1521 582 L 1521 582 L 1521 582 L 1521 582 L 1521 582 L 1521 582 Z  M 81 957 C 81 923.885 107.885 897 141 897 C 174.115 897 201 923.885 201 957 C 201 990.115 174.115 1017 141 1017 C 107.885 1017 81 990.115 81 957 L 81 957 L 81 957 L 81 957 L 81 957 L 81 957 L 81 957 L 81 957 L 81 957 L 81 957 L 81 957 L 81 957 L 81 957 Z  M 1689 405 C 1689 358.639 1726.639 321 1773 321 C 1819.361 321 1857 358.639 1857 405 C 1857 451.361 1819.361 489 1773 489 C 1726.639 489 1689 451.361 1689 405 L 1689 405 L 1689 405 L 1689 405 L 1689 405 L 1689 405 L 1689 405 L 1689 405 L 1689 405 L 1689 405 L 1689 405 L 1689 405 Z  M 864 216 C 864 141.491 924.491 81 999 81 C 1073.509 81 1134 141.491 1134 216 C 1134 290.509 1073.509 351 999 351 C 924.491 351 864 290.509 864 216 L 864 216 L 864 216 L 864 216 L 864 216 L 864 216 L 864 216 L 864 216 L 864 216 L 864 216 L 864 216 Z  M 1377 1164 C 1377 1059.688 1461.688 975 1566 975 C 1670.312 975 1755 1059.688 1755 1164 C 1755 1268.312 1670.312 1353 1566 1353 C 1461.688 1353 1377 1268.312 1377 1164 L 1377 1164 L 1377 1164 L 1377 1164 L 1377 1164 L 1377 1164 L 1377 1164 L 1377 1164 L 1377 1164 L 1377 1164 Z  M 660 -78 C 660 -152.509 720.491 -213 795 -213 C 869.509 -213 930 -152.509 930 -78 C 930 -3.491 869.509 57 795 57 C 720.491 57 660 -3.491 660 -78 L 660 -78 L 660 -78 L 660 -78 L 660 -78 L 660 -78 L 660 -78 L 660 -78 L 660 -78 Z  M -297 588 C -297 488.655 -216.345 408 -117 408 C -17.655 408 63 488.655 63 588 C 63 687.345 -17.655 768 -117 768 C -216.345 768 -297 687.345 -297 588 L -297 588 L -297 588 L -297 588 L -297 588 L -297 588 L -297 588 L -297 588 Z  M 1137 582 C 1137 499.213 1204.213 432 1287 432 C 1369.787 432 1437 499.213 1437 582 C 1437 664.787 1369.787 732 1287 732 C 1204.213 732 1137 664.787 1137 582 L 1137 582 L 1137 582 L 1137 582 L 1137 582 L 1137 582 L 1137 582 Z  M 591 216 C 591 169.639 628.639 132 675 132 C 721.361 132 759 169.639 759 216 C 759 262.361 721.361 300 675 300 C 628.639 300 591 262.361 591 216 L 591 216 L 591 216 L 591 216 L 591 216 L 591 216 Z  M 147 714 C 147 631.213 214.213 564 297 564 C 379.787 564 447 631.213 447 714 C 447 796.787 379.787 864 297 864 C 214.213 864 147 796.787 147 714 L 147 714 L 147 714 L 147 714 L 147 714 Z  M 984 927 C 984 865.737 1033.737 816 1095 816 C 1156.263 816 1206 865.737 1206 927 C 1206 988.263 1156.263 1038 1095 1038 C 1033.737 1038 984 988.263 984 927 L 984 927 L 984 927 L 984 927 Z  M 1641 795 C 1641 745.328 1681.328 705 1731 705 C 1780.672 705 1821 745.328 1821 795 C 1821 844.672 1780.672 885 1731 885 C 1681.328 885 1641 844.672 1641 795 L 1641 795 L 1641 795 Z  M 591 618 C 591 525.278 666.278 450 759 450 C 851.722 450 927 525.278 927 618 C 927 710.722 851.722 786 759 786 C 666.278 786 591 710.722 591 618 L 591 618 Z  M 1471.5 61.5 C 1471.5 -33.705 1548.795 -111 1644 -111 C 1739.205 -111 1816.5 -33.705 1816.5 61.5 C 1816.5 156.705 1739.205 234 1644 234 C 1548.795 234 1471.5 156.705 1471.5 61.5 Z " fill-rule="evenodd" fill="url(#_lgradient_2)"/></g></svg>